<?xml version="1.0" standalone="no"?><!DOCTYPE svg PUBLIC "-//W3C//DTD SVG 1.1//EN" "http://www.w3.org/Graphics/SVG/1.1/DTD/svg11.dtd"><svg t="1607667471781" class="icon" viewBox="0 0 1024 1024" version="1.1" xmlns="http://www.w3.org/2000/svg" p-id="1356" xmlns:xlink="http://www.w3.org/1999/xlink" width="200" height="200"><defs><style type="text/css"></style></defs><path d="M593.92 238.933333h-160.426667c-58.026667 0-102.4-47.786667-102.4-102.4 0-58.026667 47.786667-102.4 102.4-102.4h160.426667c58.026667 0 102.4 47.786667 102.4 102.4 0 58.026667-47.786667 102.4-102.4 102.4z m-160.426667-136.533333c-20.48 0-34.133333 17.066667-34.133333 34.133333s17.066667 34.133333 34.133333 34.133334h160.426667c20.48 0 34.133333-17.066667 34.133333-34.133334s-17.066667-34.133333-34.133333-34.133333h-160.426667z" fill="#d81e06" p-id="1357"></path><path d="M757.76 989.866667H269.653333C215.04 989.866667 170.666667 945.493333 170.666667 890.88V194.56c0-54.613333 44.373333-98.986667 98.986666-98.986667h95.573334c10.24 0 17.066667 3.413333 23.893333 10.24 6.826667 6.826667 10.24 17.066667 10.24 27.306667V136.533333c0 17.066667 17.066667 34.133333 34.133333 34.133334h160.426667c20.48 0 34.133333-17.066667 34.133333-34.133334v-3.413333c0-10.24 3.413333-20.48 10.24-27.306667 6.826667-6.826667 17.066667-10.24 23.893334-10.24h95.573333c54.613333 0 98.986667 44.373333 98.986667 98.986667v699.733333c-3.413333 51.2-47.786667 95.573333-98.986667 95.573334zM269.653333 163.84c-17.066667 0-30.72 13.653333-30.72 30.72v699.733333c0 13.653333 13.653333 27.306667 30.72 27.306667h488.106667c17.066667 0 30.72-13.653333 30.72-30.72V194.56c0-17.066667-13.653333-30.72-30.72-30.72h-64.853333C679.253333 204.8 638.293333 238.933333 593.92 238.933333h-160.426667c-47.786667 0-85.333333-34.133333-98.986666-75.093333H269.653333z" fill="#d81e06" p-id="1358"></path><path d="M341.333333 395.946667h71.68v37.546666H341.333333zM341.333333 518.826667v-37.546667h34.133334c13.653333 0 20.48 3.413333 27.306666 10.24 6.826667 6.826667 6.826667 17.066667 6.826667 30.72v150.186667c0 6.826667 0 13.653333 3.413333 13.653333 3.413333 3.413333 6.826667 3.413333 10.24 3.413333h17.066667v37.546667h-27.306667c-10.24 0-20.48 0-23.893333-3.413333-10.24-6.826667-13.653333-17.066667-13.653333-30.72v-153.6c0-6.826667 0-13.653333-3.413334-17.066667 0 0-3.413333-3.413333-10.24-3.413333H341.333333zM464.213333 723.626667v-37.546667c3.413333-3.413333 10.24 0 17.066667-6.826667 3.413333-6.826667 6.826667-13.653333 6.826667-20.48v-208.213333c0-10.24 0-17.066667 3.413333-23.893333 3.413333-6.826667 6.826667-10.24 10.24-17.066667 6.826667-10.24 20.48-13.653333 30.72-13.653333H682.666667v37.546666h-139.946667c-10.24 0-13.653333 3.413333-17.066667 6.826667-3.413333 3.413333-3.413333 10.24-3.413333 20.48v37.546667H682.666667v37.546666h-37.546667v81.92c10.24 3.413333 17.066667 6.826667 20.48 10.24 3.413333 0 10.24 3.413333 17.066667 3.413334v37.546666c-13.653333-3.413333-27.306667-3.413333-37.546667-10.24v75.093334h-34.133333v-95.573334c-13.653333-10.24-30.72-20.48-44.373334-23.893333v-37.546667c13.653333 3.413333 27.306667 10.24 44.373334 20.48v-58.026666h-92.16v122.88c0 20.48 0 40.96-10.24 47.786666-13.653333 3.413333-27.306667 10.24-44.373334 13.653334z" fill="#d81e06" p-id="1359"></path></svg>